<svg width="1600" height="900" viewBox="0 0 1600 900" xmlns="http://www.w3.org/2000/svg">
  <defs>
    <radialGradient id="nebulaCore" cx="20%" cy="15%" r="60%">
      <stop offset="0%" stop-color="#fbbf24" stop-opacity="0.9" />
      <stop offset="35%" stop-color="#f97316" stop-opacity="0.55" />
      <stop offset="70%" stop-color="#020617" stop-opacity="0.0" />
      <stop offset="100%" stop-color="#020617" stop-opacity="0.0" />
    </radialGradient>
    <radialGradient id="nebulaRim" cx="75%" cy="80%" r="70%">
      <stop offset="0%" stop-color="#22d3ee" stop-opacity="0.6" />
      <stop offset="40%" stop-color="#0f172a" stop-opacity="0.0" />
      <stop offset="100%" stop-color="#020617" stop-opacity="0.0" />
    </radialGradient>
  </defs>

  <rect width="1600" height="900" fill="#02040a" />

  <!-- Soft nebula glows -->
  <circle cx="260" cy="120" r="520" fill="url(#nebulaCore)" />
  <circle cx="1320" cy="820" r="620" fill="url(#nebulaRim)" />

  <!-- Starfield: small crisp points -->
  <g fill="#fefce8" fill-opacity="0.95">
    <circle cx="140" cy="90" r="1.1" />
    <circle cx="420" cy="60" r="1.1" />
    <circle cx="760" cy="110" r="1.2" />
    <circle cx="1180" cy="70" r="1" />
    <circle cx="1520" cy="130" r="1.2" />

    <circle cx="80" cy="260" r="1.1" />
    <circle cx="360" cy="220" r="1.1" />
    <circle cx="640" cy="260" r="1" />
    <circle cx="980" cy="250" r="1.1" />
    <circle cx="1340" cy="230" r="1.2" />

    <circle cx="200" cy="420" r="1.1" />
    <circle cx="520" cy="400" r="1.2" />
    <circle cx="860" cy="430" r="1.1" />
    <circle cx="1240" cy="410" r="1" />
    <circle cx="1500" cy="390" r="1.1" />

    <circle cx="160" cy="600" r="1.1" />
    <circle cx="440" cy="580" r="1" />
    <circle cx="780" cy="620" r="1.1" />
    <circle cx="1120" cy="590" r="1.1" />
    <circle cx="1460" cy="610" r="1.2" />

    <circle cx="100" cy="780" r="1" />
    <circle cx="380" cy="760" r="1.2" />
    <circle cx="720" cy="800" r="1.1" />
    <circle cx="1080" cy="770" r="1.1" />
    <circle cx="1420" cy="790" r="1" />
  </g>

  <!-- Warmer accent stars -->
  <g fill="#fed7aa" fill-opacity="0.9">
    <circle cx="260" cy="190" r="1.4" />
    <circle cx="620" cy="140" r="1.3" />
    <circle cx="960" cy="180" r="1.4" />
    <circle cx="1320" cy="150" r="1.3" />

    <circle cx="300" cy="360" r="1.5" />
    <circle cx="700" cy="340" r="1.3" />
    <circle cx="1100" cy="370" r="1.4" />

    <circle cx="260" cy="540" r="1.4" />
    <circle cx="660" cy="520" r="1.3" />
    <circle cx="1060" cy="550" r="1.4" />

    <circle cx="320" cy="720" r="1.4" />
    <circle cx="720" cy="700" r="1.3" />
    <circle cx="1120" cy="730" r="1.4" />
  </g>
</svg>


